:SAMPLES-PER-SECOND 24
:FULLY-SPECIFIED
:DEGREES
277
root  -1.1203 39.0449 45.021 177.885 -32.7915 176.426
RightUpLeg  5.86806 -14.3602 -9.52403
RightLeg  24.0228 10.6716 4.97831
RightFoot  -17.5795 -0.0668628 0.901283
RightToes  -1.74623e-010 0 -2.59999e-017
Spine  7.80262 1.31488 1.03639
Spine1  21.6862 1.59603 -0.8961
HEad  -7.9345 -21.3485 10.1496
LeftShoulder1  1.83339 -2.83352 -22.631
LeftArm  -6.16657 7.44514 -40.5514
LeftForeArm  120.266 -80.686 -100.249
LeftHand  0.228402 14.8589 3.65354
RightShoulder  3.2604 5.5657 30.0439
RightArm  -8.53465 -9.50195 37.1727
RightForeArm  11.3785 9.25582 11.9312
RightHand  -0.452229 -0.638331 -10.999
LeftUpLeg  -14.8415 0.865128 0.710347
LeftLeg  11.5474 -1.46775 -1.59061
LeftFoot  7.5582 1.20749 -7.51978
LeftToes  -6.27559e-011 -2.10356e-011 8.24929e-012
278
root  -0.271021 39.085 46.3157 179.393 -31.2719 176.724
RightUpLeg  1.38396 -11.5762 -6.66368
RightLeg  22.5766 6.45789 2.72943
RightFoot  -17.0917 -0.106399 0.183984
RightToes  -1.74623e-010 0 -2.59999e-017
Spine  8.46964 1.35345 4.59809
Spine1  22.1267 2.49693 -2.22806
HEad  -10.3567 -20.1996 8.7191
LeftShoulder1  1.87702 -3.01794 -22.4734
LeftArm  -4.64439 4.51925 -44.8077
LeftForeArm  110.429 -80.8627 -89.6252
LeftHand  0.348684 15.1226 4.94625
RightShoulder  3.18721 5.55886 29.246
RightArm  -14.5777 0.637336 34.8224
RightForeArm  16.4309 4.26376 12.2004
RightHand  -0.626722 0.367133 -12.7033
LeftUpLeg  -16.6654 0.271514 2.36568
LeftLeg  7.00669 1.84257 -2.33493
LeftFoot  8.6698 1.6431 -9.59734
LeftToes  -6.27559e-011 -2.10356e-011 8.24929e-012
279
root  0.435859 39.2899 47.4466 -178.654 -30.1645 175.785
RightUpLeg  -3.1731 -10.9669 -6.53427
RightLeg  23.0767 6.12 2.63953
RightFoot  -14.8243 -0.122907 -0.726551
RightToes  -1.74623e-010 0 -2.59999e-017
Spine  8.68573 1.14856 4.14331
Spine1  21.9542 1.92547 -1.46776
HEad  -9.1614 -18.3257 7.05399
LeftShoulder1  1.93166 -3.15045 -22.7368
LeftArm  -1.43711 3.22589 -48.8055
LeftForeArm  99.6996 -80.7016 -77.831
LeftHand  0.291657 14.8045 4.41439
RightShoulder  3.00185 5.39168 27.7815
RightArm  -22.3101 9.13913 33.8447
RightForeArm  18.7827 2.31208 10.4494
RightHand  -0.654551 0.170421 -13.7505
LeftUpLeg  -16.6429 -0.254927 2.78723
LeftLeg  1.4223 8.5373 -3.07177
LeftFoot  6.37985 1.93653 -12.6285
LeftToes  -6.27559e-011 -2.10356e-011 8.24929e-012
280
root  0.964047 39.5981 48.3596 -177.381 -31.0032 174.449
RightUpLeg  -4.82223 -12.6599 -7.55646
RightLeg  21.5823 7.07011 2.84812
RightFoot  -12.1218 -0.0870267 -0.443608
RightToes  -1.74623e-010 0 -2.59999e-017
Spine  9.14801 0.309921 2.20436
Spine1  20.7357 0.158241 0.42966
HEad  -5.84107 -16.9875 6.18819
LeftShoulder1  1.94835 -3.31661 -22.2501
LeftArm  3.74175 2.1752 -52.1456
LeftForeArm  91.0163 -80.2689 -68.5227
LeftHand  0.00738534 12.8426 1.10074
RightShoulder  2.80945 5.12089 26.5697
RightArm  -27.0333 12.1032 34.749
RightForeArm  12.9371 9.08975 9.1239
RightHand  -0.685569 -0.664814 -16.763
LeftUpLeg  -15.1875 -0.673821 1.9868
LeftLeg  -1.25207 13.9351 -3.49381
LeftFoot  5.02515 1.85225 -13.0349
LeftToes  -6.27559e-011 -2.10356e-011 8.24929e-012
281
root  1.37458 39.9321 49.0916 -176.755 -32.8161 173.738
RightUpLeg  -4.58976 -12.7046 -7.71245
RightLeg  18.1773 5.32014 1.81871
RightFoot  -9.38877 -0.0642034 0.028482
RightToes  -1.74623e-010 0 -2.59999e-017
Spine  9.01773 -0.580131 1.3437
Spine1  19.743 -1.39946 1.97389
HEad  -3.21633 -16.8172 6.06766
LeftShoulder1  1.90808 -3.45194 -21.0434
LeftArm  9.99339 -0.304872 -55.1501
LeftForeArm  84.3919 -79.7881 -62.9803
LeftHand  -0.192393 10.2294 -3.18191
RightShoulder  2.71136 4.95333 26.0349
RightArm  -18.9542 11.4869 35.9102
RightForeArm  -5.80976 21.4926 5.98193
RightHand  -0.996948 0.536326 -19.4773
LeftUpLeg  -13.4669 -0.316422 1.79108
LeftLeg  1.15221 13.7473 -3.16543
LeftFoot  6.04819 1.58132 -10.5742
LeftToes  -6.27559e-011 -2.10356e-011 8.24929e-012
